<mxfile host="app.diagrams.net" modified="2022-04-20T23:17:21.882Z" agent="5.0 (Windows NT 10.0; Win64; x64) AppleWebKit/537.36 (KHTML, like Gecko) Chrome/100.0.4896.127 Safari/537.36" etag="5GK69q59t2VuO6n4aP93" version="17.4.6" type="github">
  <diagram id="_OasSzyfXpFbLGzIso6j" name="Page-1">
    <mxGraphModel dx="2076" dy="1094" grid="1" gridSize="11" guides="1" tooltips="1" connect="1" arrows="1" fold="1" page="1" pageScale="1" pageWidth="2339" pageHeight="3300" math="0" shadow="0">
      <root>
        <mxCell id="0" />
        <mxCell id="1" parent="0" />
        <mxCell id="bXjj3tOBY4pDYJ4PTl34-1" value="&lt;p style=&quot;line-height: 2.1&quot;&gt;clock_divider&lt;/p&gt;" style="rounded=1;whiteSpace=wrap;html=1;align=center;fillColor=#dae8fc;strokeColor=#6c8ebf;shadow=1;" vertex="1" parent="1">
          <mxGeometry x="160" y="930" width="120" height="60" as="geometry" />
        </mxCell>
        <mxCell id="bXjj3tOBY4pDYJ4PTl34-2" value="clk" style="endArrow=none;html=1;rounded=0;" edge="1" parent="1">
          <mxGeometry width="50" height="50" relative="1" as="geometry">
            <mxPoint x="30" y="949.5" as="sourcePoint" />
            <mxPoint x="160" y="949.5" as="targetPoint" />
            <Array as="points">
              <mxPoint x="90" y="949.5" />
            </Array>
          </mxGeometry>
        </mxCell>
        <mxCell id="bXjj3tOBY4pDYJ4PTl34-3" value="reset" style="endArrow=none;html=1;rounded=0;fontFamily=Helvetica;" edge="1" parent="1">
          <mxGeometry width="50" height="50" relative="1" as="geometry">
            <mxPoint x="30" y="980" as="sourcePoint" />
            <mxPoint x="160" y="980" as="targetPoint" />
          </mxGeometry>
        </mxCell>
        <mxCell id="bXjj3tOBY4pDYJ4PTl34-4" value="clk0_01hz" style="endArrow=none;html=1;rounded=0;fontFamily=Helvetica;exitX=1;exitY=0.5;exitDx=0;exitDy=0;" edge="1" parent="1" source="bXjj3tOBY4pDYJ4PTl34-1">
          <mxGeometry width="50" height="50" relative="1" as="geometry">
            <mxPoint x="300" y="980" as="sourcePoint" />
            <mxPoint x="370" y="970" as="targetPoint" />
            <Array as="points">
              <mxPoint x="370" y="960" />
            </Array>
          </mxGeometry>
        </mxCell>
        <mxCell id="bXjj3tOBY4pDYJ4PTl34-8" value="flip_flop ff1" style="rounded=1;whiteSpace=wrap;html=1;shadow=1;fontFamily=Helvetica;direction=south;fillColor=#dae8fc;strokeColor=#6c8ebf;" vertex="1" parent="1">
          <mxGeometry x="450" y="730" width="60" height="120" as="geometry" />
        </mxCell>
        <mxCell id="bXjj3tOBY4pDYJ4PTl34-9" value="flip_flop ff2" style="rounded=1;whiteSpace=wrap;html=1;shadow=1;fontFamily=Helvetica;direction=south;fillColor=#dae8fc;strokeColor=#6c8ebf;" vertex="1" parent="1">
          <mxGeometry x="450" y="910" width="60" height="120" as="geometry" />
        </mxCell>
        <mxCell id="bXjj3tOBY4pDYJ4PTl34-11" value="" style="endArrow=none;html=1;rounded=0;fontFamily=Helvetica;" edge="1" parent="1">
          <mxGeometry width="50" height="50" relative="1" as="geometry">
            <mxPoint x="370" y="980" as="sourcePoint" />
            <mxPoint x="370" y="810" as="targetPoint" />
            <Array as="points">
              <mxPoint x="370" y="970" />
            </Array>
          </mxGeometry>
        </mxCell>
        <mxCell id="bXjj3tOBY4pDYJ4PTl34-12" value="clk" style="endArrow=none;html=1;rounded=0;fontFamily=Helvetica;entryX=0.675;entryY=1.027;entryDx=0;entryDy=0;entryPerimeter=0;" edge="1" parent="1" target="bXjj3tOBY4pDYJ4PTl34-8">
          <mxGeometry width="50" height="50" relative="1" as="geometry">
            <mxPoint x="370" y="810" as="sourcePoint" />
            <mxPoint x="440" y="810" as="targetPoint" />
          </mxGeometry>
        </mxCell>
        <mxCell id="bXjj3tOBY4pDYJ4PTl34-13" value="clk" style="endArrow=none;html=1;rounded=0;fontFamily=Helvetica;entryX=0.583;entryY=1;entryDx=0;entryDy=0;entryPerimeter=0;" edge="1" parent="1" target="bXjj3tOBY4pDYJ4PTl34-9">
          <mxGeometry width="50" height="50" relative="1" as="geometry">
            <mxPoint x="370" y="980" as="sourcePoint" />
            <mxPoint x="440" y="980" as="targetPoint" />
          </mxGeometry>
        </mxCell>
        <mxCell id="bXjj3tOBY4pDYJ4PTl34-16" value="" style="endArrow=none;html=1;rounded=0;fontFamily=Helvetica;" edge="1" parent="1">
          <mxGeometry width="50" height="50" relative="1" as="geometry">
            <mxPoint x="150" y="1000" as="sourcePoint" />
            <mxPoint x="150" y="980" as="targetPoint" />
          </mxGeometry>
        </mxCell>
        <mxCell id="bXjj3tOBY4pDYJ4PTl34-17" value="reset" style="endArrow=none;html=1;rounded=0;fontFamily=Helvetica;entryX=0.75;entryY=1;entryDx=0;entryDy=0;align=left;" edge="1" parent="1" target="bXjj3tOBY4pDYJ4PTl34-9">
          <mxGeometry width="50" height="50" relative="1" as="geometry">
            <mxPoint x="150" y="1000" as="sourcePoint" />
            <mxPoint x="414" y="1000" as="targetPoint" />
          </mxGeometry>
        </mxCell>
        <mxCell id="bXjj3tOBY4pDYJ4PTl34-18" value="D" style="endArrow=none;html=1;rounded=0;fontFamily=Helvetica;entryX=0.422;entryY=1.053;entryDx=0;entryDy=0;entryPerimeter=0;" edge="1" parent="1" target="bXjj3tOBY4pDYJ4PTl34-9">
          <mxGeometry width="50" height="50" relative="1" as="geometry">
            <mxPoint x="390" y="960" as="sourcePoint" />
            <mxPoint x="450" y="930" as="targetPoint" />
          </mxGeometry>
        </mxCell>
        <mxCell id="bXjj3tOBY4pDYJ4PTl34-19" value="" style="endArrow=none;html=1;rounded=0;fontFamily=Helvetica;" edge="1" parent="1">
          <mxGeometry width="50" height="50" relative="1" as="geometry">
            <mxPoint x="390" y="960" as="sourcePoint" />
            <mxPoint x="390" y="902" as="targetPoint" />
          </mxGeometry>
        </mxCell>
        <mxCell id="bXjj3tOBY4pDYJ4PTl34-20" value="push_up" style="endArrow=none;html=1;rounded=0;fontFamily=Helvetica;align=right;" edge="1" parent="1">
          <mxGeometry width="50" height="50" relative="1" as="geometry">
            <mxPoint x="390" y="902" as="sourcePoint" />
            <mxPoint x="30" y="902" as="targetPoint" />
          </mxGeometry>
        </mxCell>
        <mxCell id="bXjj3tOBY4pDYJ4PTl34-24" value="D" style="endArrow=none;html=1;rounded=0;fontFamily=Helvetica;entryX=0.5;entryY=1;entryDx=0;entryDy=0;" edge="1" parent="1" target="bXjj3tOBY4pDYJ4PTl34-8">
          <mxGeometry width="50" height="50" relative="1" as="geometry">
            <mxPoint x="360" y="790" as="sourcePoint" />
            <mxPoint x="450" y="765" as="targetPoint" />
          </mxGeometry>
        </mxCell>
        <mxCell id="bXjj3tOBY4pDYJ4PTl34-25" value="" style="endArrow=none;html=1;rounded=0;fontFamily=Helvetica;" edge="1" parent="1">
          <mxGeometry width="50" height="50" relative="1" as="geometry">
            <mxPoint x="360" y="790" as="sourcePoint" />
            <mxPoint x="360" y="682" as="targetPoint" />
          </mxGeometry>
        </mxCell>
        <mxCell id="bXjj3tOBY4pDYJ4PTl34-26" value="push_down" style="endArrow=none;html=1;rounded=0;fontFamily=Helvetica;align=right;" edge="1" parent="1">
          <mxGeometry width="50" height="50" relative="1" as="geometry">
            <mxPoint x="30" y="686.5" as="sourcePoint" />
            <mxPoint x="360" y="686.5" as="targetPoint" />
          </mxGeometry>
        </mxCell>
        <mxCell id="bXjj3tOBY4pDYJ4PTl34-27" value="reset" style="endArrow=none;html=1;rounded=0;fontFamily=Helvetica;" edge="1" parent="1">
          <mxGeometry width="50" height="50" relative="1" as="geometry">
            <mxPoint x="380" y="830" as="sourcePoint" />
            <mxPoint x="450" y="830" as="targetPoint" />
          </mxGeometry>
        </mxCell>
        <mxCell id="bXjj3tOBY4pDYJ4PTl34-28" value="" style="endArrow=none;html=1;rounded=0;fontFamily=Helvetica;" edge="1" parent="1">
          <mxGeometry width="50" height="50" relative="1" as="geometry">
            <mxPoint x="380" y="830" as="sourcePoint" />
            <mxPoint x="380" y="1000" as="targetPoint" />
          </mxGeometry>
        </mxCell>
        <mxCell id="bXjj3tOBY4pDYJ4PTl34-29" value="Q" style="endArrow=none;html=1;rounded=0;fontFamily=Helvetica;" edge="1" parent="1">
          <mxGeometry width="50" height="50" relative="1" as="geometry">
            <mxPoint x="510" y="800" as="sourcePoint" />
            <mxPoint x="600" y="800" as="targetPoint" />
          </mxGeometry>
        </mxCell>
        <mxCell id="bXjj3tOBY4pDYJ4PTl34-30" value="Q" style="endArrow=none;html=1;rounded=0;fontFamily=Helvetica;" edge="1" parent="1">
          <mxGeometry width="50" height="50" relative="1" as="geometry">
            <mxPoint x="510" y="980" as="sourcePoint" />
            <mxPoint x="600" y="980" as="targetPoint" />
          </mxGeometry>
        </mxCell>
        <mxCell id="bXjj3tOBY4pDYJ4PTl34-32" value="Up_down" style="whiteSpace=wrap;html=1;aspect=fixed;rounded=1;shadow=1;fontFamily=Helvetica;fillColor=#dae8fc;strokeColor=#6c8ebf;" vertex="1" parent="1">
          <mxGeometry x="620" y="760" width="80" height="80" as="geometry" />
        </mxCell>
        <mxCell id="bXjj3tOBY4pDYJ4PTl34-34" value="Down" style="endArrow=none;html=1;rounded=0;fontFamily=Helvetica;" edge="1" parent="1">
          <mxGeometry width="50" height="50" relative="1" as="geometry">
            <mxPoint x="590" y="800" as="sourcePoint" />
            <mxPoint x="620" y="800" as="targetPoint" />
          </mxGeometry>
        </mxCell>
        <mxCell id="bXjj3tOBY4pDYJ4PTl34-40" value="" style="endArrow=none;html=1;rounded=0;fontFamily=Helvetica;" edge="1" parent="1">
          <mxGeometry width="50" height="50" relative="1" as="geometry">
            <mxPoint x="600" y="980" as="sourcePoint" />
            <mxPoint x="600" y="830" as="targetPoint" />
          </mxGeometry>
        </mxCell>
        <mxCell id="bXjj3tOBY4pDYJ4PTl34-41" value="up" style="endArrow=none;html=1;rounded=0;fontFamily=Helvetica;entryX=0.015;entryY=0.858;entryDx=0;entryDy=0;entryPerimeter=0;" edge="1" parent="1" target="bXjj3tOBY4pDYJ4PTl34-32">
          <mxGeometry width="50" height="50" relative="1" as="geometry">
            <mxPoint x="600" y="830" as="sourcePoint" />
            <mxPoint x="670" y="870" as="targetPoint" />
          </mxGeometry>
        </mxCell>
        <mxCell id="bXjj3tOBY4pDYJ4PTl34-42" value="clk" style="endArrow=none;html=1;rounded=0;fontFamily=Helvetica;exitX=1;exitY=0.5;exitDx=0;exitDy=0;" edge="1" parent="1" source="bXjj3tOBY4pDYJ4PTl34-32">
          <mxGeometry width="50" height="50" relative="1" as="geometry">
            <mxPoint x="590" y="880" as="sourcePoint" />
            <mxPoint x="760" y="800" as="targetPoint" />
          </mxGeometry>
        </mxCell>
        <mxCell id="bXjj3tOBY4pDYJ4PTl34-43" value="Up Down counter" style="rounded=1;whiteSpace=wrap;html=1;shadow=1;fontFamily=Helvetica;direction=south;fillColor=#dae8fc;strokeColor=#6c8ebf;" vertex="1" parent="1">
          <mxGeometry x="781" y="627" width="60" height="120" as="geometry" />
        </mxCell>
        <mxCell id="bXjj3tOBY4pDYJ4PTl34-45" value="up" style="endArrow=none;html=1;rounded=0;fontFamily=Helvetica;entryX=0.86;entryY=1.05;entryDx=0;entryDy=0;entryPerimeter=0;align=left;" edge="1" parent="1" target="bXjj3tOBY4pDYJ4PTl34-43">
          <mxGeometry width="50" height="50" relative="1" as="geometry">
            <mxPoint x="572" y="730" as="sourcePoint" />
            <mxPoint x="781" y="682" as="targetPoint" />
          </mxGeometry>
        </mxCell>
        <mxCell id="bXjj3tOBY4pDYJ4PTl34-47" value="" style="endArrow=none;html=1;rounded=0;fontFamily=Helvetica;" edge="1" parent="1">
          <mxGeometry width="50" height="50" relative="1" as="geometry">
            <mxPoint x="572" y="728.5" as="sourcePoint" />
            <mxPoint x="572" y="902" as="targetPoint" />
          </mxGeometry>
        </mxCell>
        <mxCell id="bXjj3tOBY4pDYJ4PTl34-48" value="" style="endArrow=none;html=1;rounded=0;fontFamily=Helvetica;" edge="1" parent="1">
          <mxGeometry width="50" height="50" relative="1" as="geometry">
            <mxPoint x="383.5" y="902" as="sourcePoint" />
            <mxPoint x="572" y="902" as="targetPoint" />
          </mxGeometry>
        </mxCell>
        <mxCell id="bXjj3tOBY4pDYJ4PTl34-49" value="reset" style="endArrow=none;html=1;rounded=0;fontFamily=Helvetica;entryX=0.86;entryY=1.05;entryDx=0;entryDy=0;entryPerimeter=0;align=left;" edge="1" parent="1">
          <mxGeometry width="50" height="50" relative="1" as="geometry">
            <mxPoint x="286" y="704" as="sourcePoint" />
            <mxPoint x="781" y="704.2" as="targetPoint" />
          </mxGeometry>
        </mxCell>
        <mxCell id="bXjj3tOBY4pDYJ4PTl34-50" value="" style="endArrow=none;html=1;rounded=0;fontFamily=Helvetica;" edge="1" parent="1">
          <mxGeometry width="50" height="50" relative="1" as="geometry">
            <mxPoint x="286" y="704" as="sourcePoint" />
            <mxPoint x="286" y="1001" as="targetPoint" />
          </mxGeometry>
        </mxCell>
        <mxCell id="bXjj3tOBY4pDYJ4PTl34-51" value="down" style="endArrow=none;html=1;rounded=0;fontFamily=Helvetica;entryX=0.86;entryY=1.05;entryDx=0;entryDy=0;entryPerimeter=0;align=left;" edge="1" parent="1">
          <mxGeometry width="50" height="50" relative="1" as="geometry">
            <mxPoint x="352" y="687" as="sourcePoint" />
            <mxPoint x="781" y="686.7" as="targetPoint" />
          </mxGeometry>
        </mxCell>
        <mxCell id="bXjj3tOBY4pDYJ4PTl34-52" value="" style="endArrow=none;html=1;rounded=0;fontFamily=Helvetica;" edge="1" parent="1">
          <mxGeometry width="50" height="50" relative="1" as="geometry">
            <mxPoint x="759" y="660" as="sourcePoint" />
            <mxPoint x="759" y="803" as="targetPoint" />
          </mxGeometry>
        </mxCell>
        <mxCell id="bXjj3tOBY4pDYJ4PTl34-53" value="clk" style="endArrow=none;html=1;rounded=0;fontFamily=Helvetica;" edge="1" parent="1">
          <mxGeometry width="50" height="50" relative="1" as="geometry">
            <mxPoint x="759" y="660" as="sourcePoint" />
            <mxPoint x="781" y="660" as="targetPoint" />
          </mxGeometry>
        </mxCell>
        <mxCell id="bXjj3tOBY4pDYJ4PTl34-54" value="concatination" style="whiteSpace=wrap;html=1;aspect=fixed;rounded=1;shadow=1;fontFamily=Helvetica;fillColor=#dae8fc;strokeColor=#6c8ebf;" vertex="1" parent="1">
          <mxGeometry x="935" y="374" width="80" height="80" as="geometry" />
        </mxCell>
        <mxCell id="bXjj3tOBY4pDYJ4PTl34-55" value="Pcount" style="endArrow=none;html=1;rounded=0;fontFamily=Helvetica;exitX=0.5;exitY=0;exitDx=0;exitDy=0;" edge="1" parent="1" source="bXjj3tOBY4pDYJ4PTl34-43">
          <mxGeometry width="50" height="50" relative="1" as="geometry">
            <mxPoint x="847" y="605" as="sourcePoint" />
            <mxPoint x="891" y="687" as="targetPoint" />
          </mxGeometry>
        </mxCell>
        <mxCell id="bXjj3tOBY4pDYJ4PTl34-56" value="" style="endArrow=none;html=1;rounded=0;fontFamily=Helvetica;" edge="1" parent="1">
          <mxGeometry width="50" height="50" relative="1" as="geometry">
            <mxPoint x="891" y="693" as="sourcePoint" />
            <mxPoint x="891" y="407" as="targetPoint" />
          </mxGeometry>
        </mxCell>
        <mxCell id="bXjj3tOBY4pDYJ4PTl34-58" value="Tcount" style="endArrow=none;html=1;rounded=0;fontFamily=Helvetica;" edge="1" parent="1">
          <mxGeometry width="50" height="50" relative="1" as="geometry">
            <mxPoint x="935" y="440" as="sourcePoint" />
            <mxPoint x="858" y="440" as="targetPoint" />
          </mxGeometry>
        </mxCell>
        <mxCell id="bXjj3tOBY4pDYJ4PTl34-59" value="Pcount" style="endArrow=none;html=1;rounded=0;fontFamily=Helvetica;exitX=-0.052;exitY=0.413;exitDx=0;exitDy=0;exitPerimeter=0;" edge="1" parent="1" source="bXjj3tOBY4pDYJ4PTl34-54">
          <mxGeometry width="50" height="50" relative="1" as="geometry">
            <mxPoint x="924" y="407" as="sourcePoint" />
            <mxPoint x="891" y="407" as="targetPoint" />
            <Array as="points">
              <mxPoint x="913" y="407" />
            </Array>
          </mxGeometry>
        </mxCell>
        <mxCell id="bXjj3tOBY4pDYJ4PTl34-60" value="" style="endArrow=none;html=1;rounded=0;fontFamily=Helvetica;" edge="1" parent="1">
          <mxGeometry width="50" height="50" relative="1" as="geometry">
            <mxPoint x="858" y="440" as="sourcePoint" />
            <mxPoint x="858" y="308" as="targetPoint" />
          </mxGeometry>
        </mxCell>
        <mxCell id="bXjj3tOBY4pDYJ4PTl34-61" value="Tcount" style="endArrow=none;html=1;rounded=0;fontFamily=Helvetica;align=right;" edge="1" parent="1">
          <mxGeometry width="50" height="50" relative="1" as="geometry">
            <mxPoint x="858" y="308" as="sourcePoint" />
            <mxPoint x="176" y="308" as="targetPoint" />
          </mxGeometry>
        </mxCell>
        <mxCell id="bXjj3tOBY4pDYJ4PTl34-63" value="Rom" style="whiteSpace=wrap;html=1;aspect=fixed;rounded=1;shadow=1;fontFamily=Helvetica;fillColor=#dae8fc;strokeColor=#6c8ebf;" vertex="1" parent="1">
          <mxGeometry x="1177" y="381" width="66" height="66" as="geometry" />
        </mxCell>
        <mxCell id="bXjj3tOBY4pDYJ4PTl34-64" value="index_rom" style="endArrow=none;html=1;rounded=0;fontFamily=Helvetica;exitX=1;exitY=0.5;exitDx=0;exitDy=0;entryX=0;entryY=0.5;entryDx=0;entryDy=0;" edge="1" parent="1" source="bXjj3tOBY4pDYJ4PTl34-54" target="bXjj3tOBY4pDYJ4PTl34-63">
          <mxGeometry width="50" height="50" relative="1" as="geometry">
            <mxPoint x="1078" y="447" as="sourcePoint" />
            <mxPoint x="1128" y="397" as="targetPoint" />
          </mxGeometry>
        </mxCell>
        <mxCell id="bXjj3tOBY4pDYJ4PTl34-65" value="Wtime" style="endArrow=none;html=1;rounded=0;fontFamily=Helvetica;" edge="1" parent="1">
          <mxGeometry width="50" height="50" relative="1" as="geometry">
            <mxPoint x="1320" y="414" as="sourcePoint" />
            <mxPoint x="1243" y="413.5" as="targetPoint" />
          </mxGeometry>
        </mxCell>
        <mxCell id="bXjj3tOBY4pDYJ4PTl34-66" value="" style="endArrow=none;html=1;rounded=0;fontFamily=Helvetica;" edge="1" parent="1">
          <mxGeometry width="50" height="50" relative="1" as="geometry">
            <mxPoint x="1320" y="381" as="sourcePoint" />
            <mxPoint x="1320" y="447" as="targetPoint" />
          </mxGeometry>
        </mxCell>
        <mxCell id="bXjj3tOBY4pDYJ4PTl34-67" value="division" style="ellipse;whiteSpace=wrap;html=1;aspect=fixed;rounded=1;shadow=1;fontFamily=Helvetica;fillColor=#dae8fc;strokeColor=#6c8ebf;" vertex="1" parent="1">
          <mxGeometry x="1463" y="352" width="55" height="55" as="geometry" />
        </mxCell>
        <mxCell id="bXjj3tOBY4pDYJ4PTl34-68" value="modulus" style="ellipse;whiteSpace=wrap;html=1;aspect=fixed;rounded=1;shadow=1;fontFamily=Helvetica;fillColor=#dae8fc;strokeColor=#6c8ebf;" vertex="1" parent="1">
          <mxGeometry x="1463" y="418" width="55" height="55" as="geometry" />
        </mxCell>
        <mxCell id="bXjj3tOBY4pDYJ4PTl34-69" value="" style="endArrow=none;html=1;rounded=0;fontFamily=Helvetica;entryX=0;entryY=0.5;entryDx=0;entryDy=0;" edge="1" parent="1" target="bXjj3tOBY4pDYJ4PTl34-68">
          <mxGeometry width="50" height="50" relative="1" as="geometry">
            <mxPoint x="1320" y="446" as="sourcePoint" />
            <mxPoint x="1331" y="465" as="targetPoint" />
          </mxGeometry>
        </mxCell>
        <mxCell id="bXjj3tOBY4pDYJ4PTl34-70" value="" style="endArrow=none;html=1;rounded=0;fontFamily=Helvetica;entryX=0;entryY=0.5;entryDx=0;entryDy=0;" edge="1" parent="1">
          <mxGeometry width="50" height="50" relative="1" as="geometry">
            <mxPoint x="1320" y="381.5" as="sourcePoint" />
            <mxPoint x="1463" y="381" as="targetPoint" />
          </mxGeometry>
        </mxCell>
        <mxCell id="bXjj3tOBY4pDYJ4PTl34-71" value="out{3:0]" style="endArrow=none;html=1;rounded=0;fontFamily=Helvetica;" edge="1" parent="1">
          <mxGeometry width="50" height="50" relative="1" as="geometry">
            <mxPoint x="1518" y="381.5" as="sourcePoint" />
            <mxPoint x="1584" y="381" as="targetPoint" />
          </mxGeometry>
        </mxCell>
        <mxCell id="bXjj3tOBY4pDYJ4PTl34-72" value="out{3:0]" style="endArrow=none;html=1;rounded=0;fontFamily=Helvetica;" edge="1" parent="1">
          <mxGeometry width="50" height="50" relative="1" as="geometry">
            <mxPoint x="1518" y="445.5" as="sourcePoint" />
            <mxPoint x="1584" y="445" as="targetPoint" />
          </mxGeometry>
        </mxCell>
        <mxCell id="bXjj3tOBY4pDYJ4PTl34-73" value="decoder&lt;br&gt;7_segment" style="rounded=1;whiteSpace=wrap;html=1;shadow=1;fontFamily=Helvetica;direction=south;fillColor=#dae8fc;strokeColor=#6c8ebf;" vertex="1" parent="1">
          <mxGeometry x="1804" y="275" width="60" height="120" as="geometry" />
        </mxCell>
        <mxCell id="bXjj3tOBY4pDYJ4PTl34-74" value="decoder&lt;br&gt;7_segment" style="rounded=1;whiteSpace=wrap;html=1;shadow=1;fontFamily=Helvetica;direction=south;fillColor=#dae8fc;strokeColor=#6c8ebf;" vertex="1" parent="1">
          <mxGeometry x="1804" y="66" width="60" height="142" as="geometry" />
        </mxCell>
        <mxCell id="bXjj3tOBY4pDYJ4PTl34-75" value="decoder&lt;br&gt;7_segment" style="rounded=1;whiteSpace=wrap;html=1;shadow=1;fontFamily=Helvetica;direction=south;fillColor=#dae8fc;strokeColor=#6c8ebf;" vertex="1" parent="1">
          <mxGeometry x="1804" y="561" width="60" height="120" as="geometry" />
        </mxCell>
        <mxCell id="bXjj3tOBY4pDYJ4PTl34-76" value="decoder&lt;br&gt;7_segment" style="rounded=1;whiteSpace=wrap;html=1;shadow=1;fontFamily=Helvetica;direction=south;fillColor=#dae8fc;strokeColor=#6c8ebf;" vertex="1" parent="1">
          <mxGeometry x="1804" y="406" width="60" height="120" as="geometry" />
        </mxCell>
        <mxCell id="bXjj3tOBY4pDYJ4PTl34-77" value="decoder&lt;br&gt;7_segment" style="rounded=1;whiteSpace=wrap;html=1;shadow=1;fontFamily=Helvetica;direction=south;fillColor=#dae8fc;strokeColor=#6c8ebf;" vertex="1" parent="1">
          <mxGeometry x="1804" y="957" width="60" height="120" as="geometry" />
        </mxCell>
        <mxCell id="bXjj3tOBY4pDYJ4PTl34-78" value="decoder&lt;br&gt;7_segment" style="rounded=1;whiteSpace=wrap;html=1;shadow=1;fontFamily=Helvetica;direction=south;fillColor=#dae8fc;strokeColor=#6c8ebf;" vertex="1" parent="1">
          <mxGeometry x="1804" y="720" width="60" height="120" as="geometry" />
        </mxCell>
        <mxCell id="bXjj3tOBY4pDYJ4PTl34-79" value="" style="endArrow=none;html=1;rounded=0;fontFamily=Helvetica;" edge="1" parent="1">
          <mxGeometry width="50" height="50" relative="1" as="geometry">
            <mxPoint x="858" y="308" as="sourcePoint" />
            <mxPoint x="1408" y="308" as="targetPoint" />
          </mxGeometry>
        </mxCell>
        <mxCell id="bXjj3tOBY4pDYJ4PTl34-80" value="" style="endArrow=none;html=1;rounded=0;fontFamily=Helvetica;" edge="1" parent="1">
          <mxGeometry width="50" height="50" relative="1" as="geometry">
            <mxPoint x="1408" y="132" as="sourcePoint" />
            <mxPoint x="1408" y="308" as="targetPoint" />
          </mxGeometry>
        </mxCell>
        <mxCell id="bXjj3tOBY4pDYJ4PTl34-81" value="" style="endArrow=none;html=1;rounded=0;fontFamily=Helvetica;" edge="1" parent="1">
          <mxGeometry width="50" height="50" relative="1" as="geometry">
            <mxPoint x="1408" y="132" as="sourcePoint" />
            <mxPoint x="1716" y="132" as="targetPoint" />
          </mxGeometry>
        </mxCell>
        <mxCell id="bXjj3tOBY4pDYJ4PTl34-82" value="" style="endArrow=none;html=1;rounded=0;fontFamily=Helvetica;" edge="1" parent="1">
          <mxGeometry width="50" height="50" relative="1" as="geometry">
            <mxPoint x="1716" y="132" as="sourcePoint" />
            <mxPoint x="1716" y="143" as="targetPoint" />
          </mxGeometry>
        </mxCell>
        <mxCell id="bXjj3tOBY4pDYJ4PTl34-84" value="0" style="endArrow=none;html=1;rounded=0;fontFamily=Helvetica;" edge="1" parent="1">
          <mxGeometry width="50" height="50" relative="1" as="geometry">
            <mxPoint x="1782" y="143" as="sourcePoint" />
            <mxPoint x="1716" y="143" as="targetPoint" />
            <Array as="points">
              <mxPoint x="1727" y="143" />
            </Array>
          </mxGeometry>
        </mxCell>
        <mxCell id="bXjj3tOBY4pDYJ4PTl34-85" value="1" style="endArrow=none;html=1;rounded=0;fontFamily=Helvetica;" edge="1" parent="1">
          <mxGeometry width="50" height="50" relative="1" as="geometry">
            <mxPoint x="1793" y="132" as="sourcePoint" />
            <mxPoint x="1716" y="132" as="targetPoint" />
            <Array as="points" />
          </mxGeometry>
        </mxCell>
        <mxCell id="bXjj3tOBY4pDYJ4PTl34-86" value="A" style="endArrow=none;html=1;rounded=0;fontFamily=Helvetica;" edge="1" parent="1">
          <mxGeometry width="50" height="50" relative="1" as="geometry">
            <mxPoint x="1804" y="99" as="sourcePoint" />
            <mxPoint x="1771" y="99" as="targetPoint" />
            <Array as="points">
              <mxPoint x="1793" y="99" />
            </Array>
          </mxGeometry>
        </mxCell>
        <mxCell id="bXjj3tOBY4pDYJ4PTl34-87" value="B" style="endArrow=none;html=1;rounded=0;fontFamily=Helvetica;" edge="1" parent="1">
          <mxGeometry width="50" height="50" relative="1" as="geometry">
            <mxPoint x="1804" y="110" as="sourcePoint" />
            <mxPoint x="1771" y="110" as="targetPoint" />
            <Array as="points">
              <mxPoint x="1793" y="110" />
            </Array>
          </mxGeometry>
        </mxCell>
        <mxCell id="bXjj3tOBY4pDYJ4PTl34-88" value="C" style="endArrow=none;html=1;rounded=0;fontFamily=Helvetica;" edge="1" parent="1">
          <mxGeometry width="50" height="50" relative="1" as="geometry">
            <mxPoint x="1804" y="132" as="sourcePoint" />
            <mxPoint x="1782" y="132" as="targetPoint" />
            <Array as="points">
              <mxPoint x="1793" y="132" />
            </Array>
          </mxGeometry>
        </mxCell>
        <mxCell id="bXjj3tOBY4pDYJ4PTl34-89" value="D" style="endArrow=none;html=1;rounded=0;fontFamily=Helvetica;" edge="1" parent="1">
          <mxGeometry width="50" height="50" relative="1" as="geometry">
            <mxPoint x="1804" y="143" as="sourcePoint" />
            <mxPoint x="1782" y="143" as="targetPoint" />
            <Array as="points">
              <mxPoint x="1793" y="143" />
            </Array>
          </mxGeometry>
        </mxCell>
        <mxCell id="bXjj3tOBY4pDYJ4PTl34-90" value="A" style="endArrow=none;html=1;rounded=0;fontFamily=Helvetica;" edge="1" parent="1">
          <mxGeometry x="0.3333" width="50" height="50" relative="1" as="geometry">
            <mxPoint x="1804" y="341" as="sourcePoint" />
            <mxPoint x="1771" y="341" as="targetPoint" />
            <Array as="points">
              <mxPoint x="1793" y="341" />
            </Array>
            <mxPoint as="offset" />
          </mxGeometry>
        </mxCell>
        <mxCell id="bXjj3tOBY4pDYJ4PTl34-91" value="B" style="endArrow=none;html=1;rounded=0;fontFamily=Helvetica;" edge="1" parent="1">
          <mxGeometry x="-0.3333" width="50" height="50" relative="1" as="geometry">
            <mxPoint x="1804" y="363" as="sourcePoint" />
            <mxPoint x="1771" y="363" as="targetPoint" />
            <Array as="points">
              <mxPoint x="1793" y="363" />
            </Array>
            <mxPoint as="offset" />
          </mxGeometry>
        </mxCell>
        <mxCell id="bXjj3tOBY4pDYJ4PTl34-92" value="C" style="endArrow=none;html=1;rounded=0;fontFamily=Helvetica;" edge="1" parent="1">
          <mxGeometry width="50" height="50" relative="1" as="geometry">
            <mxPoint x="1802" y="352" as="sourcePoint" />
            <mxPoint x="1780" y="352" as="targetPoint" />
            <Array as="points">
              <mxPoint x="1791" y="352" />
            </Array>
            <mxPoint as="offset" />
          </mxGeometry>
        </mxCell>
        <mxCell id="bXjj3tOBY4pDYJ4PTl34-93" value="D" style="endArrow=none;html=1;rounded=0;fontFamily=Helvetica;" edge="1" parent="1">
          <mxGeometry width="50" height="50" relative="1" as="geometry">
            <mxPoint x="1804" y="374" as="sourcePoint" />
            <mxPoint x="1782" y="374" as="targetPoint" />
            <Array as="points">
              <mxPoint x="1793" y="374" />
            </Array>
          </mxGeometry>
        </mxCell>
        <mxCell id="bXjj3tOBY4pDYJ4PTl34-94" value="A" style="endArrow=none;html=1;rounded=0;fontFamily=Helvetica;" edge="1" parent="1">
          <mxGeometry width="50" height="50" relative="1" as="geometry">
            <mxPoint x="1804" y="447" as="sourcePoint" />
            <mxPoint x="1771" y="447" as="targetPoint" />
            <Array as="points">
              <mxPoint x="1793" y="447" />
            </Array>
          </mxGeometry>
        </mxCell>
        <mxCell id="bXjj3tOBY4pDYJ4PTl34-95" value="B" style="endArrow=none;html=1;rounded=0;fontFamily=Helvetica;" edge="1" parent="1">
          <mxGeometry width="50" height="50" relative="1" as="geometry">
            <mxPoint x="1804" y="454" as="sourcePoint" />
            <mxPoint x="1771" y="454" as="targetPoint" />
            <Array as="points">
              <mxPoint x="1793" y="454" />
            </Array>
          </mxGeometry>
        </mxCell>
        <mxCell id="bXjj3tOBY4pDYJ4PTl34-96" value="C" style="endArrow=none;html=1;rounded=0;fontFamily=Helvetica;" edge="1" parent="1">
          <mxGeometry width="50" height="50" relative="1" as="geometry">
            <mxPoint x="1802" y="462" as="sourcePoint" />
            <mxPoint x="1780" y="462" as="targetPoint" />
            <Array as="points">
              <mxPoint x="1791" y="462" />
            </Array>
          </mxGeometry>
        </mxCell>
        <mxCell id="bXjj3tOBY4pDYJ4PTl34-97" value="D" style="endArrow=none;html=1;rounded=0;fontFamily=Helvetica;" edge="1" parent="1">
          <mxGeometry width="50" height="50" relative="1" as="geometry">
            <mxPoint x="1804" y="473" as="sourcePoint" />
            <mxPoint x="1782" y="473" as="targetPoint" />
            <Array as="points">
              <mxPoint x="1793" y="473" />
            </Array>
          </mxGeometry>
        </mxCell>
        <mxCell id="bXjj3tOBY4pDYJ4PTl34-99" value="B" style="endArrow=none;html=1;rounded=0;fontFamily=Helvetica;" edge="1" parent="1">
          <mxGeometry width="50" height="50" relative="1" as="geometry">
            <mxPoint x="1804" y="616" as="sourcePoint" />
            <mxPoint x="1771" y="616" as="targetPoint" />
            <Array as="points">
              <mxPoint x="1793" y="616" />
            </Array>
          </mxGeometry>
        </mxCell>
        <mxCell id="bXjj3tOBY4pDYJ4PTl34-100" value="C" style="endArrow=none;html=1;rounded=0;fontFamily=Helvetica;" edge="1" parent="1">
          <mxGeometry width="50" height="50" relative="1" as="geometry">
            <mxPoint x="1802" y="627" as="sourcePoint" />
            <mxPoint x="1780" y="627" as="targetPoint" />
            <Array as="points">
              <mxPoint x="1791" y="627" />
            </Array>
          </mxGeometry>
        </mxCell>
        <mxCell id="bXjj3tOBY4pDYJ4PTl34-101" value="D" style="endArrow=none;html=1;rounded=0;fontFamily=Helvetica;" edge="1" parent="1">
          <mxGeometry width="50" height="50" relative="1" as="geometry">
            <mxPoint x="1802" y="638" as="sourcePoint" />
            <mxPoint x="1780" y="638" as="targetPoint" />
            <Array as="points">
              <mxPoint x="1791" y="638" />
            </Array>
          </mxGeometry>
        </mxCell>
        <mxCell id="bXjj3tOBY4pDYJ4PTl34-103" value="B" style="endArrow=none;html=1;rounded=0;fontFamily=Helvetica;" edge="1" parent="1">
          <mxGeometry width="50" height="50" relative="1" as="geometry">
            <mxPoint x="1804" y="737" as="sourcePoint" />
            <mxPoint x="1771" y="737" as="targetPoint" />
            <Array as="points">
              <mxPoint x="1793" y="737" />
            </Array>
          </mxGeometry>
        </mxCell>
        <mxCell id="bXjj3tOBY4pDYJ4PTl34-104" value="C" style="endArrow=none;html=1;rounded=0;fontFamily=Helvetica;" edge="1" parent="1">
          <mxGeometry width="50" height="50" relative="1" as="geometry">
            <mxPoint x="1804" y="747" as="sourcePoint" />
            <mxPoint x="1782" y="747" as="targetPoint" />
            <Array as="points">
              <mxPoint x="1793" y="747" />
            </Array>
          </mxGeometry>
        </mxCell>
        <mxCell id="bXjj3tOBY4pDYJ4PTl34-105" value="D" style="endArrow=none;html=1;rounded=0;fontFamily=Helvetica;" edge="1" parent="1">
          <mxGeometry width="50" height="50" relative="1" as="geometry">
            <mxPoint x="1802" y="760" as="sourcePoint" />
            <mxPoint x="1780" y="760" as="targetPoint" />
            <Array as="points">
              <mxPoint x="1791" y="760" />
            </Array>
          </mxGeometry>
        </mxCell>
        <mxCell id="bXjj3tOBY4pDYJ4PTl34-110" value="1&#39;h0" style="text;html=1;resizable=0;autosize=1;align=center;verticalAlign=middle;points=[];fillColor=none;strokeColor=none;rounded=0;shadow=1;fontFamily=Helvetica;" vertex="1" parent="1">
          <mxGeometry x="1736" y="76" width="44" height="22" as="geometry" />
        </mxCell>
        <mxCell id="bXjj3tOBY4pDYJ4PTl34-111" value="1&#39;h0" style="text;html=1;resizable=0;autosize=1;align=center;verticalAlign=middle;points=[];fillColor=none;strokeColor=none;rounded=0;shadow=1;fontFamily=Helvetica;" vertex="1" parent="1">
          <mxGeometry x="1736" y="98" width="44" height="22" as="geometry" />
        </mxCell>
        <mxCell id="bXjj3tOBY4pDYJ4PTl34-112" value="" style="endArrow=none;html=1;rounded=0;fontFamily=Helvetica;" edge="1" parent="1">
          <mxGeometry width="50" height="50" relative="1" as="geometry">
            <mxPoint x="1584" y="385" as="sourcePoint" />
            <mxPoint x="1584" y="341" as="targetPoint" />
          </mxGeometry>
        </mxCell>
        <mxCell id="bXjj3tOBY4pDYJ4PTl34-113" value="" style="endArrow=none;html=1;rounded=0;fontFamily=Helvetica;" edge="1" parent="1">
          <mxGeometry width="50" height="50" relative="1" as="geometry">
            <mxPoint x="1584" y="473" as="sourcePoint" />
            <mxPoint x="1584" y="440" as="targetPoint" />
          </mxGeometry>
        </mxCell>
        <mxCell id="bXjj3tOBY4pDYJ4PTl34-114" value="2" style="endArrow=none;html=1;rounded=0;fontFamily=Helvetica;" edge="1" parent="1">
          <mxGeometry width="50" height="50" relative="1" as="geometry">
            <mxPoint x="1606" y="352" as="sourcePoint" />
            <mxPoint x="1584" y="352" as="targetPoint" />
          </mxGeometry>
        </mxCell>
        <mxCell id="bXjj3tOBY4pDYJ4PTl34-115" value="3" style="endArrow=none;html=1;rounded=0;fontFamily=Helvetica;" edge="1" parent="1">
          <mxGeometry width="50" height="50" relative="1" as="geometry">
            <mxPoint x="1606" y="341" as="sourcePoint" />
            <mxPoint x="1584" y="341" as="targetPoint" />
          </mxGeometry>
        </mxCell>
        <mxCell id="bXjj3tOBY4pDYJ4PTl34-116" value="1" style="endArrow=none;html=1;rounded=0;fontFamily=Helvetica;" edge="1" parent="1">
          <mxGeometry width="50" height="50" relative="1" as="geometry">
            <mxPoint x="1606" y="363" as="sourcePoint" />
            <mxPoint x="1584" y="363" as="targetPoint" />
          </mxGeometry>
        </mxCell>
        <mxCell id="bXjj3tOBY4pDYJ4PTl34-117" value="0" style="endArrow=none;html=1;rounded=0;fontFamily=Helvetica;" edge="1" parent="1">
          <mxGeometry width="50" height="50" relative="1" as="geometry">
            <mxPoint x="1606" y="374" as="sourcePoint" />
            <mxPoint x="1584" y="374" as="targetPoint" />
          </mxGeometry>
        </mxCell>
        <mxCell id="bXjj3tOBY4pDYJ4PTl34-118" value="3" style="endArrow=none;html=1;rounded=0;fontFamily=Helvetica;" edge="1" parent="1">
          <mxGeometry width="50" height="50" relative="1" as="geometry">
            <mxPoint x="1606" y="445" as="sourcePoint" />
            <mxPoint x="1584" y="445" as="targetPoint" />
          </mxGeometry>
        </mxCell>
        <mxCell id="bXjj3tOBY4pDYJ4PTl34-119" value="2" style="endArrow=none;html=1;rounded=0;fontFamily=Helvetica;" edge="1" parent="1">
          <mxGeometry width="50" height="50" relative="1" as="geometry">
            <mxPoint x="1606" y="454" as="sourcePoint" />
            <mxPoint x="1584" y="454" as="targetPoint" />
          </mxGeometry>
        </mxCell>
        <mxCell id="bXjj3tOBY4pDYJ4PTl34-120" value="1" style="endArrow=none;html=1;rounded=0;fontFamily=Helvetica;" edge="1" parent="1">
          <mxGeometry width="50" height="50" relative="1" as="geometry">
            <mxPoint x="1606" y="462" as="sourcePoint" />
            <mxPoint x="1584" y="462" as="targetPoint" />
          </mxGeometry>
        </mxCell>
        <mxCell id="bXjj3tOBY4pDYJ4PTl34-121" value="0" style="endArrow=none;html=1;rounded=0;fontFamily=Helvetica;" edge="1" parent="1">
          <mxGeometry width="50" height="50" relative="1" as="geometry">
            <mxPoint x="1606" y="473" as="sourcePoint" />
            <mxPoint x="1584" y="473" as="targetPoint" />
          </mxGeometry>
        </mxCell>
        <mxCell id="bXjj3tOBY4pDYJ4PTl34-122" value="" style="endArrow=none;html=1;rounded=0;fontFamily=Helvetica;" edge="1" parent="1">
          <mxGeometry width="50" height="50" relative="1" as="geometry">
            <mxPoint x="1606" y="341" as="sourcePoint" />
            <mxPoint x="1771" y="341" as="targetPoint" />
          </mxGeometry>
        </mxCell>
        <mxCell id="bXjj3tOBY4pDYJ4PTl34-123" value="" style="endArrow=none;html=1;rounded=0;fontFamily=Helvetica;" edge="1" parent="1">
          <mxGeometry width="50" height="50" relative="1" as="geometry">
            <mxPoint x="1606" y="352" as="sourcePoint" />
            <mxPoint x="1782" y="352" as="targetPoint" />
          </mxGeometry>
        </mxCell>
        <mxCell id="bXjj3tOBY4pDYJ4PTl34-124" value="" style="endArrow=none;html=1;rounded=0;fontFamily=Helvetica;" edge="1" parent="1">
          <mxGeometry width="50" height="50" relative="1" as="geometry">
            <mxPoint x="1606" y="363" as="sourcePoint" />
            <mxPoint x="1793" y="363" as="targetPoint" />
          </mxGeometry>
        </mxCell>
        <mxCell id="bXjj3tOBY4pDYJ4PTl34-125" value="" style="endArrow=none;html=1;rounded=0;fontFamily=Helvetica;" edge="1" parent="1">
          <mxGeometry width="50" height="50" relative="1" as="geometry">
            <mxPoint x="1606" y="374" as="sourcePoint" />
            <mxPoint x="1804" y="374" as="targetPoint" />
          </mxGeometry>
        </mxCell>
        <mxCell id="bXjj3tOBY4pDYJ4PTl34-126" value="" style="endArrow=none;html=1;rounded=0;fontFamily=Helvetica;" edge="1" parent="1">
          <mxGeometry width="50" height="50" relative="1" as="geometry">
            <mxPoint x="1606" y="454" as="sourcePoint" />
            <mxPoint x="1771" y="454" as="targetPoint" />
          </mxGeometry>
        </mxCell>
        <mxCell id="bXjj3tOBY4pDYJ4PTl34-127" value="" style="endArrow=none;html=1;rounded=0;fontFamily=Helvetica;" edge="1" parent="1">
          <mxGeometry width="50" height="50" relative="1" as="geometry">
            <mxPoint x="1604" y="462" as="sourcePoint" />
            <mxPoint x="1780" y="462" as="targetPoint" />
          </mxGeometry>
        </mxCell>
        <mxCell id="bXjj3tOBY4pDYJ4PTl34-128" value="" style="endArrow=none;html=1;rounded=0;fontFamily=Helvetica;" edge="1" parent="1">
          <mxGeometry width="50" height="50" relative="1" as="geometry">
            <mxPoint x="1606" y="473" as="sourcePoint" />
            <mxPoint x="1793" y="473" as="targetPoint" />
          </mxGeometry>
        </mxCell>
        <mxCell id="bXjj3tOBY4pDYJ4PTl34-129" value="" style="endArrow=none;html=1;rounded=0;fontFamily=Helvetica;" edge="1" parent="1">
          <mxGeometry width="50" height="50" relative="1" as="geometry">
            <mxPoint x="1595" y="445" as="sourcePoint" />
            <mxPoint x="1771" y="445" as="targetPoint" />
          </mxGeometry>
        </mxCell>
        <mxCell id="bXjj3tOBY4pDYJ4PTl34-130" value="" style="endArrow=none;html=1;rounded=0;fontFamily=Helvetica;" edge="1" parent="1">
          <mxGeometry width="50" height="50" relative="1" as="geometry">
            <mxPoint x="891" y="687.5" as="sourcePoint" />
            <mxPoint x="1639" y="687" as="targetPoint" />
          </mxGeometry>
        </mxCell>
        <mxCell id="bXjj3tOBY4pDYJ4PTl34-131" value="" style="endArrow=none;html=1;rounded=0;fontFamily=Helvetica;" edge="1" parent="1">
          <mxGeometry width="50" height="50" relative="1" as="geometry">
            <mxPoint x="1639" y="737" as="sourcePoint" />
            <mxPoint x="1639" y="638" as="targetPoint" />
          </mxGeometry>
        </mxCell>
        <mxCell id="bXjj3tOBY4pDYJ4PTl34-133" value="0" style="endArrow=none;html=1;rounded=0;fontFamily=Helvetica;" edge="1" parent="1">
          <mxGeometry width="50" height="50" relative="1" as="geometry">
            <mxPoint x="1705" y="638" as="sourcePoint" />
            <mxPoint x="1716" y="638" as="targetPoint" />
          </mxGeometry>
        </mxCell>
        <mxCell id="bXjj3tOBY4pDYJ4PTl34-135" value="2" style="endArrow=none;html=1;rounded=0;fontFamily=Helvetica;" edge="1" parent="1">
          <mxGeometry width="50" height="50" relative="1" as="geometry">
            <mxPoint x="1727" y="616" as="sourcePoint" />
            <mxPoint x="1705" y="616" as="targetPoint" />
          </mxGeometry>
        </mxCell>
        <mxCell id="bXjj3tOBY4pDYJ4PTl34-136" value="1" style="endArrow=none;html=1;rounded=0;fontFamily=Helvetica;" edge="1" parent="1">
          <mxGeometry width="50" height="50" relative="1" as="geometry">
            <mxPoint x="1727" y="627" as="sourcePoint" />
            <mxPoint x="1705" y="627" as="targetPoint" />
          </mxGeometry>
        </mxCell>
        <mxCell id="bXjj3tOBY4pDYJ4PTl34-138" value="" style="endArrow=none;html=1;rounded=0;fontFamily=Helvetica;" edge="1" parent="1">
          <mxGeometry width="50" height="50" relative="1" as="geometry">
            <mxPoint x="1639" y="638" as="sourcePoint" />
            <mxPoint x="1705" y="638" as="targetPoint" />
          </mxGeometry>
        </mxCell>
        <mxCell id="bXjj3tOBY4pDYJ4PTl34-139" value="" style="endArrow=none;html=1;rounded=0;fontFamily=Helvetica;" edge="1" parent="1">
          <mxGeometry width="50" height="50" relative="1" as="geometry">
            <mxPoint x="1705" y="616" as="sourcePoint" />
            <mxPoint x="1705" y="638" as="targetPoint" />
          </mxGeometry>
        </mxCell>
        <mxCell id="bXjj3tOBY4pDYJ4PTl34-140" value="" style="endArrow=none;html=1;rounded=0;fontFamily=Helvetica;" edge="1" parent="1">
          <mxGeometry width="50" height="50" relative="1" as="geometry">
            <mxPoint x="1714" y="638" as="sourcePoint" />
            <mxPoint x="1780" y="638" as="targetPoint" />
          </mxGeometry>
        </mxCell>
        <mxCell id="bXjj3tOBY4pDYJ4PTl34-141" value="" style="endArrow=none;html=1;rounded=0;fontFamily=Helvetica;" edge="1" parent="1">
          <mxGeometry width="50" height="50" relative="1" as="geometry">
            <mxPoint x="1725" y="627" as="sourcePoint" />
            <mxPoint x="1791" y="627" as="targetPoint" />
          </mxGeometry>
        </mxCell>
        <mxCell id="bXjj3tOBY4pDYJ4PTl34-142" value="" style="endArrow=none;html=1;rounded=0;fontFamily=Helvetica;" edge="1" parent="1">
          <mxGeometry width="50" height="50" relative="1" as="geometry">
            <mxPoint x="1727" y="616" as="sourcePoint" />
            <mxPoint x="1780" y="616" as="targetPoint" />
          </mxGeometry>
        </mxCell>
        <mxCell id="bXjj3tOBY4pDYJ4PTl34-143" value="2" style="endArrow=none;html=1;rounded=0;fontFamily=Helvetica;" edge="1" parent="1">
          <mxGeometry width="50" height="50" relative="1" as="geometry">
            <mxPoint x="1727" y="737" as="sourcePoint" />
            <mxPoint x="1705" y="737" as="targetPoint" />
          </mxGeometry>
        </mxCell>
        <mxCell id="bXjj3tOBY4pDYJ4PTl34-144" value="1" style="endArrow=none;html=1;rounded=0;fontFamily=Helvetica;" edge="1" parent="1">
          <mxGeometry width="50" height="50" relative="1" as="geometry">
            <mxPoint x="1727" y="747" as="sourcePoint" />
            <mxPoint x="1705" y="747" as="targetPoint" />
          </mxGeometry>
        </mxCell>
        <mxCell id="bXjj3tOBY4pDYJ4PTl34-145" value="" style="endArrow=none;html=1;rounded=0;fontFamily=Helvetica;" edge="1" parent="1">
          <mxGeometry width="50" height="50" relative="1" as="geometry">
            <mxPoint x="1639" y="737" as="sourcePoint" />
            <mxPoint x="1705" y="737" as="targetPoint" />
          </mxGeometry>
        </mxCell>
        <mxCell id="bXjj3tOBY4pDYJ4PTl34-146" value="" style="endArrow=none;html=1;rounded=0;fontFamily=Helvetica;" edge="1" parent="1">
          <mxGeometry width="50" height="50" relative="1" as="geometry">
            <mxPoint x="1705" y="738" as="sourcePoint" />
            <mxPoint x="1705" y="760" as="targetPoint" />
          </mxGeometry>
        </mxCell>
        <mxCell id="bXjj3tOBY4pDYJ4PTl34-147" value="" style="endArrow=none;html=1;rounded=0;fontFamily=Helvetica;" edge="1" parent="1">
          <mxGeometry width="50" height="50" relative="1" as="geometry">
            <mxPoint x="1727" y="737" as="sourcePoint" />
            <mxPoint x="1780" y="737" as="targetPoint" />
          </mxGeometry>
        </mxCell>
        <mxCell id="bXjj3tOBY4pDYJ4PTl34-149" value="" style="endArrow=none;html=1;rounded=0;fontFamily=Helvetica;" edge="1" parent="1">
          <mxGeometry width="50" height="50" relative="1" as="geometry">
            <mxPoint x="1727" y="747" as="sourcePoint" />
            <mxPoint x="1782" y="748" as="targetPoint" />
          </mxGeometry>
        </mxCell>
        <mxCell id="bXjj3tOBY4pDYJ4PTl34-151" value="0" style="endArrow=none;html=1;rounded=0;fontFamily=Helvetica;" edge="1" parent="1">
          <mxGeometry width="50" height="50" relative="1" as="geometry">
            <mxPoint x="1705" y="759" as="sourcePoint" />
            <mxPoint x="1727" y="759" as="targetPoint" />
          </mxGeometry>
        </mxCell>
        <mxCell id="bXjj3tOBY4pDYJ4PTl34-152" value="" style="endArrow=none;html=1;rounded=0;fontFamily=Helvetica;" edge="1" parent="1">
          <mxGeometry width="50" height="50" relative="1" as="geometry">
            <mxPoint x="1725" y="760" as="sourcePoint" />
            <mxPoint x="1780" y="761" as="targetPoint" />
          </mxGeometry>
        </mxCell>
        <mxCell id="bXjj3tOBY4pDYJ4PTl34-153" value="leds" style="endArrow=none;html=1;rounded=0;fontFamily=Helvetica;exitX=0.75;exitY=0;exitDx=0;exitDy=0;" edge="1" parent="1" source="bXjj3tOBY4pDYJ4PTl34-43">
          <mxGeometry width="50" height="50" relative="1" as="geometry">
            <mxPoint x="847" y="715" as="sourcePoint" />
            <mxPoint x="946" y="715" as="targetPoint" />
          </mxGeometry>
        </mxCell>
        <mxCell id="bXjj3tOBY4pDYJ4PTl34-154" value="" style="endArrow=none;html=1;rounded=0;fontFamily=Helvetica;" edge="1" parent="1">
          <mxGeometry width="50" height="50" relative="1" as="geometry">
            <mxPoint x="946" y="715" as="sourcePoint" />
            <mxPoint x="957" y="1012" as="targetPoint" />
          </mxGeometry>
        </mxCell>
        <mxCell id="bXjj3tOBY4pDYJ4PTl34-155" value="" style="endArrow=none;html=1;rounded=0;fontFamily=Helvetica;exitX=0.5;exitY=1;exitDx=0;exitDy=0;" edge="1" parent="1" source="bXjj3tOBY4pDYJ4PTl34-77">
          <mxGeometry width="50" height="50" relative="1" as="geometry">
            <mxPoint x="957" y="726" as="sourcePoint" />
            <mxPoint x="957" y="1012" as="targetPoint" />
          </mxGeometry>
        </mxCell>
        <mxCell id="bXjj3tOBY4pDYJ4PTl34-156" value="Y" style="text;html=1;resizable=0;autosize=1;align=center;verticalAlign=middle;points=[];fillColor=none;strokeColor=none;rounded=0;shadow=1;fontFamily=Helvetica;" vertex="1" parent="1">
          <mxGeometry x="1714" y="1000" width="22" height="22" as="geometry" />
        </mxCell>
        <mxCell id="bXjj3tOBY4pDYJ4PTl34-164" value="" style="shape=image;html=1;verticalAlign=top;verticalLabelPosition=bottom;labelBackgroundColor=#ffffff;imageAspect=0;aspect=fixed;image=https://cdn2.iconfinder.com/data/icons/electronic-13/480/2-electronic-seven-segment-icon-2-128.png;rounded=1;shadow=1;fontFamily=Helvetica;" vertex="1" parent="1">
          <mxGeometry x="1969" y="76" width="128" height="128" as="geometry" />
        </mxCell>
        <mxCell id="bXjj3tOBY4pDYJ4PTl34-165" value="" style="shape=image;html=1;verticalAlign=top;verticalLabelPosition=bottom;labelBackgroundColor=#ffffff;imageAspect=0;aspect=fixed;image=https://cdn2.iconfinder.com/data/icons/electronic-13/480/2-electronic-seven-segment-icon-2-128.png;rounded=1;shadow=1;fontFamily=Helvetica;" vertex="1" parent="1">
          <mxGeometry x="1984" y="722" width="128" height="128" as="geometry" />
        </mxCell>
        <mxCell id="bXjj3tOBY4pDYJ4PTl34-166" value="" style="shape=image;html=1;verticalAlign=top;verticalLabelPosition=bottom;labelBackgroundColor=#ffffff;imageAspect=0;aspect=fixed;image=https://cdn2.iconfinder.com/data/icons/electronic-13/480/2-electronic-seven-segment-icon-2-128.png;rounded=1;shadow=1;fontFamily=Helvetica;" vertex="1" parent="1">
          <mxGeometry x="1984" y="553" width="128" height="128" as="geometry" />
        </mxCell>
        <mxCell id="bXjj3tOBY4pDYJ4PTl34-167" value="" style="shape=image;html=1;verticalAlign=top;verticalLabelPosition=bottom;labelBackgroundColor=#ffffff;imageAspect=0;aspect=fixed;image=https://cdn2.iconfinder.com/data/icons/electronic-13/480/2-electronic-seven-segment-icon-2-128.png;rounded=1;shadow=1;fontFamily=Helvetica;" vertex="1" parent="1">
          <mxGeometry x="1991" y="407" width="128" height="128" as="geometry" />
        </mxCell>
        <mxCell id="bXjj3tOBY4pDYJ4PTl34-169" value="" style="shape=image;html=1;verticalAlign=top;verticalLabelPosition=bottom;labelBackgroundColor=#ffffff;imageAspect=0;aspect=fixed;image=https://cdn2.iconfinder.com/data/icons/electronic-13/480/2-electronic-seven-segment-icon-2-128.png;rounded=1;shadow=1;fontFamily=Helvetica;" vertex="1" parent="1">
          <mxGeometry x="2002" y="290" width="128" height="128" as="geometry" />
        </mxCell>
        <mxCell id="bXjj3tOBY4pDYJ4PTl34-170" value="" style="shape=image;html=1;verticalAlign=top;verticalLabelPosition=bottom;labelBackgroundColor=#ffffff;imageAspect=0;aspect=fixed;image=https://cdn2.iconfinder.com/data/icons/electronic-13/480/2-electronic-seven-segment-icon-2-128.png;rounded=1;shadow=1;fontFamily=Helvetica;" vertex="1" parent="1">
          <mxGeometry x="1991" y="957" width="128" height="128" as="geometry" />
        </mxCell>
        <mxCell id="bXjj3tOBY4pDYJ4PTl34-172" value="" style="endArrow=none;html=1;rounded=0;fontFamily=Helvetica;exitX=0.5;exitY=0;exitDx=0;exitDy=0;" edge="1" parent="1" source="bXjj3tOBY4pDYJ4PTl34-74" target="bXjj3tOBY4pDYJ4PTl34-164">
          <mxGeometry width="50" height="50" relative="1" as="geometry">
            <mxPoint x="1958" y="193" as="sourcePoint" />
            <mxPoint x="2008" y="143" as="targetPoint" />
          </mxGeometry>
        </mxCell>
        <mxCell id="bXjj3tOBY4pDYJ4PTl34-173" value="" style="endArrow=none;html=1;rounded=0;fontFamily=Helvetica;exitX=0.5;exitY=0;exitDx=0;exitDy=0;" edge="1" parent="1" target="bXjj3tOBY4pDYJ4PTl34-170">
          <mxGeometry width="50" height="50" relative="1" as="geometry">
            <mxPoint x="1864" y="1022.98" as="sourcePoint" />
            <mxPoint x="1947" y="1019.027619047619" as="targetPoint" />
          </mxGeometry>
        </mxCell>
        <mxCell id="bXjj3tOBY4pDYJ4PTl34-174" value="" style="endArrow=none;html=1;rounded=0;fontFamily=Helvetica;exitX=0.5;exitY=0;exitDx=0;exitDy=0;" edge="1" parent="1" target="bXjj3tOBY4pDYJ4PTl34-165">
          <mxGeometry width="50" height="50" relative="1" as="geometry">
            <mxPoint x="1864" y="781.98" as="sourcePoint" />
            <mxPoint x="1947" y="778.027619047619" as="targetPoint" />
          </mxGeometry>
        </mxCell>
        <mxCell id="bXjj3tOBY4pDYJ4PTl34-175" value="" style="endArrow=none;html=1;rounded=0;fontFamily=Helvetica;exitX=0.5;exitY=0;exitDx=0;exitDy=0;" edge="1" parent="1" target="bXjj3tOBY4pDYJ4PTl34-166">
          <mxGeometry width="50" height="50" relative="1" as="geometry">
            <mxPoint x="1864" y="622.98" as="sourcePoint" />
            <mxPoint x="1947" y="619.027619047619" as="targetPoint" />
          </mxGeometry>
        </mxCell>
        <mxCell id="bXjj3tOBY4pDYJ4PTl34-176" value="" style="endArrow=none;html=1;rounded=0;fontFamily=Helvetica;exitX=0.5;exitY=0;exitDx=0;exitDy=0;" edge="1" parent="1" target="bXjj3tOBY4pDYJ4PTl34-167">
          <mxGeometry width="50" height="50" relative="1" as="geometry">
            <mxPoint x="1864" y="476.95" as="sourcePoint" />
            <mxPoint x="1947" y="472.997619047619" as="targetPoint" />
          </mxGeometry>
        </mxCell>
        <mxCell id="bXjj3tOBY4pDYJ4PTl34-177" value="" style="endArrow=none;html=1;rounded=0;fontFamily=Helvetica;exitX=0.5;exitY=0;exitDx=0;exitDy=0;" edge="1" parent="1" target="bXjj3tOBY4pDYJ4PTl34-169">
          <mxGeometry width="50" height="50" relative="1" as="geometry">
            <mxPoint x="1864" y="352" as="sourcePoint" />
            <mxPoint x="1947" y="348.04761904761904" as="targetPoint" />
          </mxGeometry>
        </mxCell>
      </root>
    </mxGraphModel>
  </diagram>
</mxfile>
